<?xml version="1.0" standalone="no"?>
<!DOCTYPE svg PUBLIC "-//W3C//DTD SVG 20010904//EN"
 "http://www.w3.org/TR/2001/REC-SVG-20010904/DTD/svg10.dtd">
<svg version="1.0" xmlns="http://www.w3.org/2000/svg"
 width="804.000000pt" height="472.000000pt" viewBox="0 0 804.000000 472.000000"
 preserveAspectRatio="xMidYMid meet">
<metadata>
Created by potrace 1.16, written by Peter Selinger 2001-2019
</metadata>
<g transform="translate(0.000000,472.000000) scale(0.100000,-0.100000)"
fill="#000000" stroke="none">
<path d="M5510 4710 c-256 -21 -501 -83 -760 -193 -81 -34 -110 -49 -238 -121
-144 -80 -363 -248 -347 -264 2 -2 43 27 92 65 144 113 313 223 339 223 9 0
28 8 42 19 15 10 45 26 67 35 22 10 54 24 70 31 76 36 229 89 285 100 19 3 44
10 55 15 38 17 291 59 390 65 160 10 382 8 485 -5 104 -12 365 -73 418 -96 18
-9 40 -14 50 -12 29 6 -189 78 -235 78 -17 0 -34 4 -37 9 -6 10 -83 24 -221
40 -119 15 -347 20 -455 11z"/>
<path d="M2195 4623 c-97 -12 -290 -46 -350 -62 -130 -36 -150 -42 -215 -68
-96 -37 -95 -37 -224 -100 -151 -74 -156 -76 -156 -85 0 -5 -6 -8 -14 -8 -21
0 -67 -40 -60 -52 4 -7 10 -4 16 6 7 13 17 15 43 10 28 -5 34 -3 40 15 4 15
12 20 24 16 12 -4 21 2 28 18 7 15 23 27 42 30 18 4 30 12 29 19 -2 8 10 14
30 16 17 2 32 7 32 11 0 5 26 16 58 25 31 10 67 22 80 27 13 5 34 9 48 9 22 0
40 7 84 32 33 18 119 38 168 38 20 0 78 11 127 24 71 19 207 35 310 38 61 1
349 -13 358 -19 6 -3 27 -7 46 -8 91 -5 422 -93 531 -142 67 -30 265 -127 270
-132 3 -3 23 -15 45 -26 22 -11 60 -34 84 -52 24 -18 48 -33 54 -33 5 0 25
-16 44 -35 19 -20 52 -47 72 -59 21 -13 51 -37 67 -53 16 -15 60 -54 97 -86
37 -32 67 -63 67 -69 0 -7 20 -30 45 -54 25 -23 45 -46 45 -52 0 -6 4 -12 9
-14 5 -1 18 -19 29 -38 11 -19 25 -34 31 -32 6 1 11 -5 11 -14 0 -9 8 -24 18
-33 10 -9 29 -34 42 -56 13 -22 27 -42 30 -45 4 -3 28 -45 54 -95 26 -49 52
-94 57 -100 5 -5 9 -17 9 -27 0 -20 35 -91 62 -127 10 -13 18 -33 18 -45 1
-11 9 -39 19 -60 17 -35 19 -37 25 -18 4 11 3 29 -3 39 -22 41 -51 110 -51
122 0 6 -8 26 -17 44 -9 18 -18 38 -19 45 -4 21 -75 163 -104 206 -15 23 -40
61 -56 86 -96 148 -340 421 -444 495 -23 17 -49 37 -59 46 -44 40 -131 99
-146 99 -8 0 -15 5 -15 11 0 5 -15 17 -32 25 -18 8 -42 20 -52 27 -83 52 -127
77 -137 77 -6 0 -39 14 -73 31 -33 17 -77 38 -96 47 -19 8 -48 22 -64 30 -25
13 -65 26 -166 53 -62 17 -222 49 -320 65 -88 14 -449 26 -525 17z"/>
<path d="M6431 4462 c173 -63 268 -112 538 -277 15 -9 146 -111 182 -142 14
-12 17 -12 22 0 7 19 -55 87 -79 87 -26 0 -59 34 -48 51 4 7 3 10 -4 5 -6 -3
-35 7 -64 22 -97 53 -133 74 -148 86 -8 7 -31 19 -50 28 -19 9 -89 42 -155 73
-66 31 -128 60 -137 65 -10 6 -26 10 -36 10 -10 0 -22 3 -26 7 -8 8 -19 11
-66 18 -19 3 13 -12 71 -33z"/>
<path d="M2255 4068 c-49 -11 -125 -22 -167 -25 -43 -2 -78 -8 -78 -13 0 -17
83 -15 173 4 133 28 330 26 457 -4 156 -36 173 -40 230 -44 122 -10 204 -21
295 -41 l30 -6 -20 20 c-20 20 -58 27 -210 37 -93 7 -179 22 -310 53 -164 40
-284 45 -400 19z"/>
<path d="M2336 3991 c-3 -4 -41 -11 -84 -14 -44 -3 -90 -10 -103 -16 -22 -8
-168 -49 -248 -68 -36 -9 -51 -27 -28 -36 7 -3 45 6 84 19 156 52 495 84 653
61 244 -35 377 -77 575 -180 52 -27 221 -142 264 -179 38 -34 54 -31 19 4 -43
43 -211 158 -287 196 -41 20 -84 45 -95 55 -11 9 -38 22 -61 28 -22 5 -65 21
-96 34 -84 37 -249 69 -439 85 -69 6 -130 13 -137 15 -7 2 -15 1 -17 -4z"/>
<path d="M5913 3939 c-7 -7 -13 -16 -13 -20 0 -8 52 1 67 13 15 12 63 -1 57
-16 -4 -9 9 -12 44 -10 43 3 51 0 60 -19 6 -12 11 -16 11 -9 1 8 6 10 13 5 7
-4 29 -8 48 -8 19 -1 55 -10 80 -22 25 -11 70 -31 100 -44 88 -38 256 -144
354 -223 108 -87 276 -261 276 -286 0 -5 3 -10 8 -10 4 0 15 -14 25 -31 10
-18 20 -29 23 -27 11 11 -64 112 -166 222 -85 93 -74 83 -165 157 -175 143
-373 249 -550 295 -33 9 -65 20 -71 25 -20 16 -187 23 -201 8z"/>
<path d="M5670 3050 c0 -3 60 -13 133 -22 258 -33 397 -73 602 -173 196 -96
352 -215 479 -365 64 -76 158 -232 170 -282 3 -16 11 -28 17 -28 7 0 8 7 4 18
-5 9 -19 49 -32 87 -14 39 -29 72 -34 73 -5 2 -9 8 -9 14 0 11 -51 85 -92 134
-82 99 -266 257 -320 276 -15 6 -28 14 -28 19 0 17 -220 122 -334 160 -181 59
-556 119 -556 89z"/>
<path d="M2741 2877 c-46 -13 -99 -65 -74 -74 10 -3 10 -9 1 -23 -17 -26 -5
-35 24 -17 12 8 41 18 63 22 21 4 52 13 67 21 60 31 173 12 256 -44 123 -82
215 -113 228 -77 9 24 -13 39 -95 66 -36 12 -86 32 -111 44 -25 12 -70 30
-100 40 -30 9 -73 26 -96 36 -45 21 -98 23 -163 6z"/>
<path d="M46 2489 c-10 -96 -7 -342 5 -422 14 -99 49 -286 60 -322 32 -109 73
-235 85 -262 8 -17 14 -36 14 -42 0 -6 5 -11 10 -11 6 0 10 5 10 10 0 6 12 8
28 4 l27 -6 -33 29 c-29 25 -39 46 -45 93 -1 8 -9 26 -17 40 -29 50 -50 122
-75 258 -8 40 -17 77 -20 83 -4 5 -9 29 -12 52 -2 23 -9 74 -14 112 -5 39 -10
154 -10 258 0 103 -2 187 -4 187 -1 0 -5 -28 -9 -61z"/>
<path d="M5970 2391 c0 -5 17 -13 38 -16 44 -8 70 -16 177 -51 201 -67 399
-197 523 -343 95 -112 112 -135 112 -153 0 -9 5 -20 10 -23 6 -4 18 -24 27
-46 15 -39 33 -52 33 -24 0 9 -7 18 -15 21 -8 4 -13 10 -10 14 3 5 -8 30 -25
57 -16 26 -34 59 -40 72 -28 63 -138 182 -240 260 -133 101 -334 191 -495 221
-33 6 -68 14 -77 16 -10 3 -18 1 -18 -5z"/>
<path d="M2274 2099 c-10 -17 28 -62 62 -72 16 -4 38 -13 50 -19 21 -10 45 -5
128 25 23 9 59 12 91 10 54 -5 95 8 95 30 0 13 -96 14 -232 1 -58 -5 -78 -4
-78 5 0 8 -8 10 -20 6 -12 -4 -27 -1 -35 5 -8 7 -15 9 -15 6 0 -4 -9 -2 -19 4
-14 7 -22 7 -27 -1z"/>
<path d="M200 2085 c0 -29 35 -76 125 -169 11 -12 84 -100 162 -196 180 -222
228 -276 235 -264 3 5 -51 77 -120 160 -70 84 -162 194 -204 245 -42 52 -95
113 -117 136 -22 23 -50 57 -61 75 -16 26 -20 29 -20 13z"/>
<path d="M3951 1956 c-10 -40 -77 -211 -100 -256 -61 -118 -130 -228 -165
-263 -14 -14 -26 -34 -26 -44 0 -24 -184 -200 -295 -282 -90 -67 -200 -135
-265 -164 -84 -37 -205 -76 -208 -67 -2 6 -10 10 -18 10 -9 0 -13 -4 -9 -10
18 -29 -129 -62 -253 -56 -45 2 -85 0 -88 -5 -2 -4 -23 -6 -46 -4 -27 3 -45
-1 -52 -9 -9 -12 -33 -12 -146 0 -74 8 -145 18 -158 24 -13 5 -31 10 -41 10
-16 0 -102 41 -126 60 -5 4 -18 9 -28 11 -10 2 -18 9 -19 14 0 6 -24 25 -52
44 -28 19 -55 40 -59 48 -4 7 -15 13 -22 13 -8 0 -15 7 -15 15 0 8 -4 15 -9
15 -5 0 -39 28 -76 63 -72 66 -101 77 -99 40 0 -14 -5 -23 -14 -23 -19 0 -7
-49 16 -66 9 -7 13 -16 9 -21 -5 -4 -14 0 -21 10 -7 9 -18 17 -24 17 -5 0 -8
9 -5 20 5 21 -11 28 -22 10 -9 -15 -17 -12 -50 15 -25 21 -28 27 -15 35 12 8
10 10 -10 8 -14 -2 -25 2 -26 10 -1 6 -2 18 -3 25 -1 9 -4 8 -10 -2 -7 -11
-18 -6 -55 24 -25 20 -46 43 -46 49 0 6 -9 17 -20 24 -11 7 -20 19 -20 28 0 8
-4 13 -9 9 -12 -7 -54 52 -46 65 3 5 1 10 -4 10 -6 0 -11 7 -11 16 0 8 -5 12
-11 9 -11 -7 -49 27 -49 43 0 5 -9 17 -20 27 -23 21 -26 41 -7 49 6 3 4 4 -6
3 -11 -1 -25 10 -35 28 -9 17 -20 32 -24 33 -5 2 -8 10 -8 17 0 21 -41 86 -50
80 -11 -7 23 -95 57 -148 59 -94 79 -123 96 -142 10 -11 34 -43 53 -72 19 -29
40 -56 47 -60 26 -17 87 -94 82 -103 -4 -6 2 -10 11 -10 10 0 27 -9 38 -19 36
-32 290 -201 303 -201 7 0 13 -4 13 -10 0 -8 56 -43 62 -38 3 2 87 -27 123
-43 60 -25 248 -72 360 -90 130 -20 341 -16 480 10 118 21 170 34 210 51 11 5
43 16 70 26 160 57 381 193 494 304 15 14 43 39 63 56 20 17 56 53 79 80 23
27 46 48 51 46 4 -1 8 6 8 15 0 18 38 70 93 128 15 17 27 37 27 45 0 8 9 29
20 45 33 48 104 211 105 240 1 24 40 95 52 95 16 0 16 -4 -1 44 l-13 38 -12
-46z"/>
<path d="M741 1934 c-1 -21 23 -109 40 -149 4 -11 15 -42 24 -70 16 -48 87
-195 147 -303 42 -76 109 -161 218 -274 52 -55 102 -110 110 -124 8 -13 22
-24 30 -24 9 0 25 -8 36 -17 48 -44 113 -93 122 -93 6 0 24 -11 39 -24 33 -28
221 -126 241 -126 6 0 12 -5 12 -11 0 -6 6 -9 13 -6 8 3 33 -3 57 -14 23 -10
52 -19 64 -19 12 0 26 -4 32 -9 5 -6 32 -12 59 -16 62 -7 107 -26 100 -42 -3
-9 10 -13 46 -13 57 0 104 -17 154 -57 31 -25 35 -33 35 -75 0 -42 -4 -50 -35
-74 -19 -14 -35 -32 -35 -38 0 -18 47 -59 59 -52 6 4 12 -17 16 -51 10 -92 2
-86 118 -79 56 4 117 10 135 13 29 5 32 8 20 19 -11 12 -35 13 -121 6 -68 -5
-111 -4 -117 2 -6 6 -10 41 -10 80 0 38 -5 107 -12 153 -15 100 -9 111 49 92
37 -13 113 -69 93 -69 -13 0 -13 -77 0 -85 6 -4 7 1 3 11 -5 14 -3 16 11 11
10 -4 20 -7 23 -7 3 0 0 -7 -7 -15 -7 -8 -8 -15 -3 -15 16 0 33 24 33 47 0 15
6 23 18 23 27 0 43 -15 36 -33 -3 -10 -1 -17 5 -17 6 0 11 5 11 11 0 8 13 9
43 4 23 -4 57 -9 75 -10 18 -2 39 -9 48 -15 17 -15 45 -16 289 -8 192 7 185 5
305 73 16 9 28 11 34 5 6 -6 14 -10 20 -10 6 0 5 5 -2 12 -7 7 -12 15 -12 18
0 4 35 33 77 66 42 32 93 74 112 92 43 40 132 85 152 77 14 -5 45 32 35 42
-18 18 -146 -33 -146 -58 0 -5 -6 -9 -13 -9 -7 0 -45 -27 -83 -61 -87 -76
-171 -134 -252 -176 l-63 -32 -194 0 c-162 0 -205 3 -257 18 -35 10 -85 22
-111 25 -26 3 -89 26 -140 50 -51 24 -108 49 -127 54 -19 6 -60 18 -90 27 -30
9 -68 27 -85 39 -16 12 -38 25 -47 29 -10 3 -18 10 -18 15 0 9 -111 99 -145
118 -11 6 -42 22 -68 37 -26 15 -52 27 -58 27 -20 0 4 -23 45 -42 66 -31 79
-40 137 -91 l54 -48 -35 6 c-55 11 -284 77 -325 95 -154 67 -241 118 -421 248
-51 36 -284 269 -284 283 0 4 -20 31 -45 60 -25 29 -45 61 -45 70 0 10 -7 25
-16 34 -30 30 -130 241 -165 350 -38 117 -48 142 -48 119z"/>
<path d="M2242 1858 c-22 -22 -13 -37 26 -43 20 -3 53 -10 73 -15 20 -6 76
-10 125 -10 49 0 119 -5 156 -10 44 -6 76 -6 93 0 18 7 33 7 46 0 16 -9 19 -7
19 9 0 10 -9 29 -19 42 -17 21 -22 22 -43 11 -13 -7 -32 -12 -43 -11 -11 0
-46 2 -78 2 -31 1 -57 4 -57 7 0 3 -60 6 -132 7 -81 2 -134 6 -136 13 -5 13
-15 13 -30 -2z"/>
<path d="M2290 1696 c0 -20 46 -65 72 -70 91 -17 182 -26 201 -20 12 4 31 8
42 9 11 1 23 3 28 4 10 2 9 29 -3 36 -5 3 -67 8 -137 11 -70 3 -133 10 -138
14 -6 5 -23 13 -38 19 -21 8 -27 8 -27 -3z"/>
<path d="M2230 1492 c0 -25 33 -77 79 -123 106 -105 159 -121 378 -115 168 4
332 22 347 37 6 5 19 9 30 9 22 1 56 22 56 35 0 4 -16 5 -35 2 -19 -3 -37 -1
-40 4 -4 5 -14 5 -26 -1 -12 -7 -26 -7 -36 -2 -10 5 -24 7 -30 5 -7 -3 -18 7
-24 21 -10 20 -15 23 -30 15 -10 -5 -45 -10 -78 -10 -44 -1 -61 -5 -66 -17 -5
-13 -7 -13 -18 2 -7 10 -24 18 -38 18 -49 1 -194 -10 -210 -17 -9 -3 -21 1
-29 9 -7 10 -21 14 -35 10 -16 -4 -26 0 -33 12 -6 11 -16 15 -26 11 -17 -7
-70 23 -93 53 -6 8 -18 24 -27 35 -9 12 -15 15 -16 7z"/>
<path d="M230 1406 c0 -19 107 -224 184 -353 59 -97 177 -245 285 -356 299
-308 706 -540 1125 -641 232 -56 261 -59 612 -53 333 5 322 4 564 60 161 38
453 157 580 238 19 13 55 33 80 47 25 13 47 27 50 31 3 3 17 12 33 20 15 8 27
18 27 23 0 5 -4 6 -10 3 -5 -3 -10 -1 -10 4 0 6 10 10 23 8 14 -1 21 3 19 11
-1 8 2 11 8 7 14 -8 93 52 189 144 41 39 79 71 85 71 12 0 -14 20 -26 20 -4 0
-33 -25 -64 -55 -32 -30 -60 -55 -63 -55 -12 -1 -57 -46 -64 -64 -4 -9 -11
-15 -16 -11 -8 4 -190 -112 -211 -135 -8 -8 -40 -27 -90 -51 -25 -13 -56 -29
-69 -38 -13 -8 -29 -16 -35 -17 -6 -1 -40 -16 -75 -33 -36 -17 -69 -31 -75
-31 -6 0 -22 -6 -36 -13 -26 -14 -78 -32 -190 -66 -66 -21 -258 -59 -295 -59
-11 0 -78 -9 -149 -21 -93 -16 -147 -20 -193 -15 -44 4 -63 3 -63 -5 0 -6 -7
-11 -16 -11 -8 0 -12 5 -9 10 4 6 -13 10 -42 10 -109 2 -212 13 -320 35 -63
13 -120 22 -127 19 -7 -3 -26 2 -42 11 -16 8 -36 15 -44 15 -8 0 -28 7 -44 15
-15 8 -35 15 -43 15 -8 0 -27 6 -41 14 -48 25 -100 46 -115 46 -9 0 -19 5 -22
10 -3 6 -17 10 -29 10 -13 0 -29 6 -35 14 -7 8 -37 24 -69 36 -31 13 -73 35
-92 50 -20 15 -50 31 -67 34 -17 4 -37 14 -44 22 -7 9 -26 22 -43 31 -17 8
-39 25 -48 37 -9 11 -22 22 -27 22 -6 1 -16 2 -22 3 -5 0 -7 6 -4 11 3 6 0 10
-7 10 -16 0 -68 47 -68 61 0 6 -7 9 -15 5 -8 -3 -14 0 -12 6 1 7 -4 13 -10 14
-7 1 -17 2 -21 3 -22 3 -297 289 -339 352 -14 21 -30 39 -34 39 -5 0 -9 5 -9
11 0 6 -28 55 -62 108 -89 136 -87 133 -99 161 -6 14 -18 36 -26 50 -7 14 -24
46 -36 72 -21 45 -47 64 -47 34z"/>
<path d="M6575 993 c-94 -60 -165 -95 -260 -128 -44 -15 -102 -37 -130 -50
-44 -19 -135 -39 -285 -61 -61 -9 -86 -23 -40 -24 75 0 327 50 355 71 6 4 37
16 70 27 92 31 149 59 256 123 54 33 103 59 109 59 12 0 14 17 2 24 -4 2 -39
-16 -77 -41z"/>
<path d="M7293 818 c-22 -24 -70 -70 -108 -103 -37 -33 -75 -67 -84 -75 -9 -9
-39 -31 -66 -50 -28 -19 -61 -44 -75 -56 -68 -57 -286 -173 -448 -238 -180
-73 -523 -155 -642 -154 -67 0 -136 -8 -143 -17 -6 -7 -10 -6 -14 3 -2 7 -22
12 -44 12 l-40 0 20 -21 c18 -20 26 -21 108 -14 48 3 120 8 158 10 113 6 258
27 285 41 14 7 48 17 75 22 61 12 181 48 215 63 14 7 41 19 60 27 19 8 43 19
52 23 10 5 24 9 31 9 8 0 24 9 37 20 13 11 28 20 35 20 18 0 75 30 126 67 26
18 51 33 58 33 6 0 11 5 11 10 0 6 7 10 15 10 18 0 60 28 124 83 24 20 50 37
57 37 8 0 14 7 14 15 0 8 6 15 13 15 14 0 77 66 77 81 0 6 9 8 21 4 18 -6 19
-5 10 14 -9 16 -7 24 11 41 12 11 25 20 30 20 4 0 8 7 8 15 0 8 6 15 13 15 13
1 52 48 45 56 -3 2 -23 -15 -45 -38z"/>
<path d="M1190 675 c-35 -51 -48 -54 -89 -24 -20 15 -34 18 -45 12 -13 -7 -9
-14 26 -41 39 -30 78 -42 78 -24 0 11 39 52 48 52 5 0 6 -16 4 -35 -2 -19 1
-42 8 -50 6 -8 9 -19 5 -24 -9 -16 76 -92 100 -89 11 2 28 -5 37 -14 23 -23
92 -43 115 -33 36 16 75 14 118 -6 39 -18 44 -24 39 -45 -9 -37 46 -84 97 -84
21 0 39 4 39 9 0 16 -52 52 -83 58 -25 5 -28 10 -25 35 4 28 0 32 -63 64 -77
38 -86 40 -109 19 -13 -12 -27 -13 -78 -4 -57 10 -65 15 -103 60 -22 27 -47
49 -55 49 -10 0 -14 15 -15 58 -1 31 -1 64 0 74 4 34 -19 27 -49 -17z"/>
<path d="M4090 663 c0 -13 133 -131 208 -184 37 -27 84 -61 105 -76 100 -73
376 -207 532 -258 270 -88 486 -124 745 -125 214 -1 361 12 419 36 18 8 50 14
70 14 55 1 333 80 356 102 12 12 -28 3 -105 -22 -151 -50 -402 -97 -557 -106
-54 -3 -103 -7 -108 -8 -13 -4 -341 21 -425 33 -132 19 -411 97 -515 145 -16
8 -55 24 -85 37 -30 13 -81 38 -113 56 -33 18 -62 33 -67 33 -7 0 -209 134
-277 184 -37 27 -101 78 -149 120 -19 15 -34 24 -34 19z"/>
</g>
</svg>
